<?xml version="1.0" encoding="UTF-8" standalone="no"?>
<!-- Created with Inkscape (http://www.inkscape.org/) -->

<svg
   width="15.993721mm"
   height="15.993721mm"
   viewBox="0 0 15.993721 15.993721"
   version="1.1"
   id="svg5"
   sodipodi:docname="deleteAllButton.svg"
   inkscape:version="1.2.1 (9c6d41e410, 2022-07-14)"
   xml:space="preserve"
   xmlns:inkscape="http://www.inkscape.org/namespaces/inkscape"
   xmlns:sodipodi="http://sodipodi.sourceforge.net/DTD/sodipodi-0.dtd"
   xmlns="http://www.w3.org/2000/svg"
   xmlns:svg="http://www.w3.org/2000/svg"><sodipodi:namedview
     id="namedview7"
     pagecolor="#ffffff"
     bordercolor="#000000"
     borderopacity="0.25"
     inkscape:showpageshadow="false"
     inkscape:pageopacity="0.0"
     inkscape:pagecheckerboard="true"
     inkscape:deskcolor="#d1d1d1"
     inkscape:document-units="mm"
     showgrid="false"
     showborder="false"
     borderlayer="false"
     shape-rendering="auto"
     inkscape:zoom="4.7609364"
     inkscape:cx="29.721044"
     inkscape:cy="46.734504"
     inkscape:window-width="1920"
     inkscape:window-height="1001"
     inkscape:window-x="-9"
     inkscape:window-y="-9"
     inkscape:window-maximized="1"
     inkscape:current-layer="layer1" /><defs
     id="defs2" /><g
     inkscape:label="Capa 1"
     inkscape:groupmode="layer"
     id="layer1"
     transform="translate(-70.692667,-110.61792)"><circle
       style="fill:#fa4646;fill-opacity:1;stroke:#4b4b4b;stroke-width:1;stroke-dasharray:none;stroke-opacity:1"
       id="path163-7"
       cx="139.51521"
       cy="28.231417"
       r="7.5"
       transform="rotate(45)" /><path
       style="fill:#000000;stroke-width:0.0206429"
       d="m 75.471628,123.84379 c -0.573423,-0.0287 -0.695482,-0.0827 -1.269534,-0.56182 -0.293932,-0.24529 -0.341394,-0.30095 -0.515087,-0.60348 -0.184843,-0.32216 -0.307906,-0.57996 -0.409827,-0.85875 -0.170025,-0.46512 -0.170213,-0.47275 -0.02089,-0.84636 0.276543,-0.69194 0.638682,-1.23737 1.141199,-1.71881 0.262506,-0.25147 0.419158,-0.36873 0.558317,-0.41783 0.219665,-0.0775 1.021141,-0.0877 1.486016,-0.0189 0.346767,0.0513 0.576321,0.20519 1.063105,0.71258 0.23959,0.2509 0.322676,0.37981 0.538135,0.84426 0.405204,0.8736 0.408297,0.89183 0.216302,1.27317 -0.177415,0.35238 -1.010314,1.66514 -1.149352,1.81153 -0.07582,0.0796 -0.379666,0.31873 -0.460036,0.36175 -0.05194,0.0278 -0.791545,0.042 -1.178368,0.0226 z m 1.15351,-0.085 c 0.0384,-0.0234 0.117769,-0.078 0.176458,-0.12133 0.112303,-0.083 0.114728,-0.089 0.122806,-0.30812 l 0.0026,-0.0696 -0.2477,-0.0511 c -0.136184,-0.0281 -0.521752,-0.13038 -0.856678,-0.22735 -0.334936,-0.097 -0.634675,-0.18076 -0.666074,-0.18622 -0.03931,-0.007 -0.19702,0.0435 -0.505757,0.16143 -0.246751,0.0942 -0.451941,0.17369 -0.45597,0.17658 -0.02588,0.0185 0.603189,0.52342 0.678226,0.54458 0.21513,0.0606 0.844523,0.11386 1.424358,0.12062 0.227415,0.003 0.266312,-0.002 0.327794,-0.0395 z m 0.658118,-0.61602 c 0.05847,-0.0919 0.09743,-0.16702 0.08659,-0.16701 -0.0111,2.1e-4 -0.01972,-0.0201 -0.01971,-0.0447 2.8e-5,-0.13687 0.620337,-1.05518 0.675505,-1.00002 0.0054,0.005 -0.04064,0.0731 -0.102248,0.15052 -0.255117,0.32069 -0.540987,0.78888 -0.504164,0.8257 0.0089,0.009 0.456555,-0.66101 0.598333,-0.89543 0.09573,-0.15829 0.240856,-0.46965 0.240859,-0.51677 -7e-6,-0.0789 -0.216721,0.18194 -0.415566,0.50019 -0.113498,0.18165 -0.312718,0.47892 -0.442716,0.66057 -0.324463,0.45338 -0.353124,0.50628 -0.369137,0.68121 l -0.01323,0.14451 0.07955,-0.0859 c 0.04377,-0.0472 0.127413,-0.16101 0.185884,-0.25286 z m -0.388191,-0.0349 c 0.14297,-0.0572 0.50771,-0.52765 0.849665,-1.096 0.249244,-0.41422 0.263175,-0.46455 0.172527,-0.62314 -0.07146,-0.12505 -0.761119,-1.0416 -0.866384,-1.15146 -0.06453,-0.0674 -0.101931,-0.0892 -0.148839,-0.0896 -0.07918,2e-5 -0.517332,0.14944 -0.935006,0.31889 -0.433741,0.17597 -0.501624,0.20971 -0.603153,0.29981 l -0.08741,0.0777 -0.01394,0.4208 c -0.0076,0.23143 -0.01905,0.62672 -0.02533,0.87843 -0.01113,0.44719 -0.01035,0.45916 0.03412,0.52465 0.0552,0.0814 0.142467,0.11305 0.798975,0.29078 0.255455,0.0691 0.506272,0.1376 0.557354,0.15214 0.126728,0.0361 0.171324,0.0356 0.267435,-0.003 z m -2.334239,-0.23217 c 0.445789,-0.18611 0.43573,-0.17424 0.436553,-0.51545 3.05e-4,-0.12132 0.0093,-0.31096 0.02008,-0.42145 0.07831,-0.80507 0.06927,-1.15514 -0.03364,-1.30158 -0.123014,-0.17519 -0.786165,-0.57215 -0.955558,-0.57215 -0.09994,5e-5 -0.116977,0.0167 -0.279611,0.27297 -0.147892,0.23308 -0.294755,0.50921 -0.414789,0.77981 -0.08487,0.19134 -0.09483,0.22886 -0.08489,0.31997 0.02912,0.26679 0.552145,1.3174 0.740642,1.48769 0.12054,0.10781 0.211391,0.10037 0.571203,-0.0498 z m 0.542889,-0.21092 c 0.03295,-0.0445 0.04171,-0.15618 0.07703,-0.97702 0.03618,-0.84047 0.04342,-0.93025 0.07783,-0.96466 0.05169,-0.0517 1.276506,-0.5703 1.508397,-0.63869 0.09434,-0.0278 0.107714,-0.0474 0.05331,-0.0778 -0.04415,-0.0248 -0.08985,-0.0108 -0.381104,0.11611 -0.353832,0.15418 -1.070994,0.41844 -1.142734,0.42107 -0.09579,0.003 -0.140048,-0.0164 -0.442523,-0.19975 -0.154751,-0.0938 -0.364747,-0.215 -0.46663,-0.26935 -0.101879,-0.0544 -0.201507,-0.1127 -0.221403,-0.12962 -0.06839,-0.0571 -0.04462,-0.14857 0.08792,-0.34568 l 0.124055,-0.1845 -0.187829,0.19363 c -0.252593,0.26023 -0.330975,0.39104 -0.217249,0.36249 0.05378,-0.0135 0.368076,0.14801 0.77632,0.39886 0.394069,0.24212 0.391353,0.23651 0.391172,0.81004 -1.86e-4,0.58942 -0.04722,1.3517 -0.08967,1.45329 -0.01826,0.0437 -0.03319,0.0836 -0.03319,0.0889 7e-6,0.0233 0.0525,-0.0114 0.08623,-0.0571 z m 3.1532,-1.37423 c 0.09972,-0.12675 0.02771,-0.32727 -0.406662,-1.13258 -0.192582,-0.35705 -0.291606,-0.49812 -0.47256,-0.67326 -0.200509,-0.19344 -0.482069,-0.43116 -0.511999,-0.43111 -0.01699,-1e-5 0.01367,0.14081 0.09345,0.42833 0.06532,0.23559 0.124329,0.45339 0.131121,0.484 0.0068,0.0307 0.09429,0.16062 0.194369,0.28898 0.100079,0.12836 0.305203,0.39797 0.455654,0.59932 0.318991,0.42676 0.375372,0.49078 0.43202,0.49071 0.02303,-2e-5 0.06109,-0.0245 0.08461,-0.0544 z M 73.7304,120.13351 c -0.0079,-0.008 -0.219693,0.36238 -0.303149,0.52992 -0.05976,0.11995 -0.164392,0.37701 -0.16439,0.40385 7e-5,0.006 0.106518,-0.20069 0.236704,-0.45873 0.130192,-0.25805 0.234063,-0.47182 0.230835,-0.47504 z m 1.99816,0.22832 c 0.376946,-0.14079 0.694989,-0.27891 0.786235,-0.34143 0.166764,-0.11427 0.172201,-0.2745 0.02602,-0.76667 -0.02293,-0.0772 -0.03599,-0.14616 -0.02906,-0.15309 0.0193,-0.0193 0.01958,-0.0185 0.127961,0.34439 0.06377,0.21362 0.119615,0.3615 0.150353,0.39812 0.04254,0.051 0.143979,0.11867 0.177198,0.11865 0.02309,5e-5 0.01028,-0.1276 -0.02014,-0.20055 -0.0173,-0.0415 -0.05021,-0.15033 -0.07317,-0.24188 -0.107964,-0.43145 -0.188789,-0.58774 -0.32343,-0.62538 -0.07592,-0.0212 -1.350493,-0.0199 -1.478872,0.002 -0.09001,0.0151 -0.121254,0.0367 -0.293803,0.20361 -0.202911,0.19627 -0.404055,0.43772 -0.522163,0.62673 -0.05925,0.0948 -0.06686,0.12008 -0.04832,0.16075 0.01504,0.033 0.15462,0.1204 0.441888,0.27679 0.470528,0.25608 0.594324,0.3117 0.697435,0.31332 0.03917,5.7e-4 0.210964,-0.0511 0.381891,-0.11495 z m 6.085081,1.22935 c -0.03722,-0.0113 -0.153333,-0.07 -0.258021,-0.13045 -0.104688,-0.0604 -0.370492,-0.20052 -0.590582,-0.31142 -0.220082,-0.11091 -0.591665,-0.31014 -0.825718,-0.44276 -0.23411,-0.13257 -0.533167,-0.29936 -0.664699,-0.37052 -0.308512,-0.16688 -0.385869,-0.23788 -0.433133,-0.39749 -0.01139,-0.0383 -0.0291,-0.23683 -0.03945,-0.4412 -0.01036,-0.20436 -0.03466,-0.60846 -0.05403,-0.89797 -0.01936,-0.28952 -0.03613,-0.64714 -0.03725,-0.79474 -0.0019,-0.25649 4.4e-4,-0.27258 0.05395,-0.36359 0.06293,-0.10707 0.09729,-0.13843 0.43871,-0.4002 0.133261,-0.10218 0.327284,-0.25451 0.431158,-0.3385 0.757979,-0.61284 1.201456,-0.95856 1.26219,-0.98393 0.09286,-0.0388 0.27116,-0.0378 0.384561,0.002 0.04964,0.0175 0.290047,0.13728 0.534153,0.26619 0.244132,0.12887 0.601739,0.31526 0.794746,0.41412 0.19303,0.0988 0.412749,0.21585 0.488315,0.25996 0.07561,0.0441 0.159189,0.0885 0.185841,0.0986 0.100204,0.0381 0.546118,0.2971 0.60066,0.34883 0.03101,0.0299 0.07761,0.0963 0.103068,0.14804 0.03965,0.0808 0.0459,0.12495 0.04372,0.31089 -0.0034,0.28924 -0.04544,1.07893 -0.06983,1.31083 -0.01071,0.10215 -0.02843,0.30996 -0.0393,0.46174 -0.02944,0.4109 -0.0058,0.37652 -0.757106,1.09847 -0.902509,0.86718 -1.139736,1.08582 -1.218592,1.12326 -0.08883,0.0421 -0.246351,0.0562 -0.333267,0.0296 z m 0.129542,-0.0969 c 0.01202,-0.009 0.02064,-0.12505 0.02063,-0.2732 4e-6,-0.4845 0.05471,-2.03317 0.07406,-2.09625 0.01062,-0.0346 0.06332,-0.10529 0.117119,-0.15708 0.09042,-0.087 0.699547,-0.61365 1.507463,-1.30333 0.291873,-0.24912 0.336449,-0.29538 0.356439,-0.36959 0.01976,-0.0734 0.01756,-0.092 -0.01641,-0.13845 -0.04926,-0.0672 -0.647442,-0.3976 -1.667053,-0.92079 -0.215742,-0.11067 -0.471183,-0.24328 -0.567682,-0.29467 -0.0965,-0.0514 -0.216325,-0.11521 -0.266275,-0.14182 -0.136207,-0.0726 -0.297054,-0.0675 -0.416571,0.0132 -0.153138,0.10343 -1.905267,1.51582 -1.913374,1.54237 -0.0042,0.0139 0.05954,0.0584 0.14346,0.1009 0.08303,0.0419 0.569078,0.30088 1.079988,0.57569 1.533107,0.82464 1.486825,0.80154 1.574898,0.7857 0.110485,-0.0199 0.24055,-0.11205 0.797678,-0.56512 0.273248,-0.22219 0.588716,-0.47875 0.70109,-0.5701 0.112366,-0.0914 0.230814,-0.18768 0.263185,-0.21404 0.101703,-0.0828 0.06405,-0.009 -0.04947,0.0967 -0.05954,0.0557 -0.252367,0.21625 -0.428344,0.35703 -0.175985,0.14075 -0.524334,0.42289 -0.774109,0.62695 l -0.454139,0.371 -0.123871,10e-6 c -0.11919,3e-5 -0.141818,-0.01 -0.598643,-0.25571 -0.261199,-0.14057 -0.623409,-0.3412 -0.805072,-0.44569 -0.18168,-0.10447 -0.564922,-0.30857 -0.851701,-0.4535 -0.615089,-0.31087 -0.623983,-0.31242 -0.624736,-0.10909 -2.61e-4,0.0707 0.02791,0.60703 0.0626,1.19174 0.05178,0.87266 0.06943,1.07605 0.09853,1.13536 0.03184,0.0648 0.137384,0.1289 1.02631,0.62337 0.544976,0.30312 1.120909,0.62517 1.279859,0.71567 0.32185,0.18326 0.399578,0.21282 0.454145,0.17273 z m -0.08044,-0.89765 c 0.02713,-1.15749 0.02492,-1.33347 -0.01774,-1.41241 -0.01945,-0.036 -0.06107,-0.0836 -0.09271,-0.10543 -0.05423,-0.0381 -1.997067,-1.07186 -2.31079,-1.2294 -0.131009,-0.0658 -0.228517,-0.14946 -0.203415,-0.17457 0.0078,-0.008 0.321857,0.1517 0.846975,0.43034 0.102171,0.0542 0.506263,0.26729 0.897966,0.47347 0.391699,0.2062 0.744692,0.40033 0.784429,0.43142 0.04036,0.0305 0.09374,0.098 0.120478,0.14819 l 0.04818,0.0917 -0.01268,0.92892 c -0.01341,0.98127 -0.02437,1.20761 -0.05848,1.20761 -0.01425,4e-5 -0.015,-0.25587 -0.0025,-0.78958 z m 1.105787,0.1061 c 0.446517,-0.42702 0.850381,-0.81042 0.897474,-0.852 0.04716,-0.0415 0.09982,-0.10561 0.117203,-0.14223 0.03214,-0.0677 0.06146,-0.38395 0.126895,-1.36711 0.01738,-0.26113 0.03634,-0.53312 0.04212,-0.60441 0.01346,-0.16577 -0.0026,-0.22884 -0.06225,-0.24381 -0.06495,-0.0163 -0.151887,0.0332 -0.304,0.1732 -0.07128,0.0655 -0.222257,0.19311 -0.335734,0.28352 -0.551458,0.43954 -1.106865,0.91929 -1.203549,1.0396 -0.1329,0.1654 -0.145013,0.20963 -0.15869,0.58014 -0.0069,0.18733 -0.02672,0.66022 -0.04401,1.05084 -0.01729,0.39062 -0.02541,0.73428 -0.01803,0.76367 0.01839,0.0733 0.05126,0.1084 0.09421,0.10129 0.01995,-0.003 0.40163,-0.35553 0.848168,-0.78254 z m -3.914845,-1.87948 c -0.0298,-0.50344 -0.05763,-0.92463 -0.06184,-0.93599 -0.01472,-0.0395 -0.01042,0.1463 0.0097,0.42509 0.01113,0.15432 0.0294,0.51198 0.04059,0.79478 0.01909,0.48197 0.03501,0.6622 0.05661,0.6406 0.0057,-0.006 -0.01524,-0.42105 -0.04504,-0.92448 z m -0.07909,-1.14719 c -0.0053,-0.02 -0.0098,-0.009 -0.01027,0.0254 -4.24e-4,0.0341 0.0038,0.0506 0.0095,0.0365 0.0056,-0.0139 0.006,-0.0418 7.43e-4,-0.0619 z m -2.211037,0.82893 c -0.121825,-0.0446 -0.247801,-0.14796 -0.744939,-0.61144 -0.514591,-0.4798 -1.226057,-1.20725 -1.263437,-1.29172 -0.05585,-0.12628 -0.03369,-0.25554 0.105968,-0.61912 0.251457,-0.6546 0.498858,-1.223 0.59126,-1.35841 0.06152,-0.0902 0.163857,-0.17305 0.473316,-0.38377 0.107855,-0.0734 0.321514,-0.22125 0.474789,-0.32851 0.744859,-0.52126 0.767765,-0.53518 0.880794,-0.53518 0.14395,0 0.291844,0.0711 0.502278,0.24154 0.214057,0.17333 1.266995,1.09544 1.603556,1.40431 0.393264,0.36088 0.378493,0.46377 -0.149972,1.04167 -0.148577,0.16244 -0.366479,0.4022 -0.484269,0.53276 -0.117811,0.13054 -0.219359,0.24206 -0.225744,0.24771 -0.0066,0.006 -0.168921,0.18683 -0.361254,0.40254 -0.192319,0.21572 -0.434107,0.4851 -0.537288,0.59863 -0.103131,0.1136 -0.233112,0.26216 -0.288711,0.33029 -0.293089,0.35899 -0.371599,0.40376 -0.576413,0.32873 z m 0.255514,-0.11156 c 0.02072,-0.0111 0.115344,-0.11096 0.210124,-0.22187 0.09476,-0.11092 0.293245,-0.33637 0.44103,-0.501 0.147806,-0.16464 0.365716,-0.41543 0.484198,-0.55736 0.118511,-0.14191 0.285608,-0.33772 0.371345,-0.43511 0.275785,-0.31322 0.63395,-0.79163 0.720739,-0.96263 0.05889,-0.116 0.05667,-0.16737 -0.0083,-0.19206 -0.0288,-0.011 -0.388777,-0.085 -0.799917,-0.16446 -0.411128,-0.0795 -1.07264,-0.20995 -1.470018,-0.28988 -1.250566,-0.25155 -1.310826,-0.25595 -1.310828,-0.0957 6.4e-5,0.0333 0.07816,0.2707 0.1737,0.52743 0.164387,0.44175 0.387041,1.06341 0.817835,2.28334 0.104235,0.29519 0.202679,0.55762 0.218755,0.58317 0.03101,0.0494 0.08928,0.0594 0.151369,0.0262 z m -0.329499,-0.0549 c -7.1e-5,-0.007 -0.106125,-0.29754 -0.235843,-0.64509 -0.41272,-1.10588 -0.692827,-1.86045 -0.820761,-2.2111 -0.162245,-0.44466 -0.203548,-0.53961 -0.231285,-0.53169 -0.04608,0.0132 -0.201842,0.36097 -0.475964,1.0625 -0.128126,0.3279 -0.141663,0.43278 -0.07383,0.57223 0.04508,0.0927 0.751859,0.80489 1.391221,1.40253 0.341612,0.31913 0.446232,0.40126 0.446199,0.35088 z m 2.836049,-2.80253 c 0.01836,-0.0386 0.03329,-0.0954 0.03331,-0.12627 7e-6,-0.0482 -0.0065,-0.0543 -0.04687,-0.0426 -0.128227,0.0359 -0.225461,0.0346 -0.428428,-0.006 -0.119179,-0.0237 -0.513915,-0.0996 -0.87723,-0.16866 -0.36331,-0.069 -1.041175,-0.1992 -1.506365,-0.28924 -0.465169,-0.0901 -0.855318,-0.16346 -0.86699,-0.16311 -0.05678,0.002 0.05689,0.0384 0.185242,0.0597 0.163552,0.0272 1.315326,0.2472 2.332656,0.44552 0.374665,0.073 0.749167,0.14384 0.832214,0.15734 0.16904,0.0275 0.251539,0.0779 0.251484,0.15376 7e-6,0.0733 0.05108,0.0624 0.09052,-0.0201 z m -0.111177,-0.23945 c 0.04419,-0.0442 0.04844,-0.0606 0.02869,-0.11202 -0.01213,-0.0315 -0.269387,-0.26515 -0.645236,-0.58754 -0.09799,-0.0838 -0.361322,-0.31451 -0.585151,-0.5126 -0.700918,-0.62003 -0.732904,-0.64084 -0.94836,-0.62018 -0.10572,0.0101 -0.319926,0.14193 -0.863683,0.5314 -0.153273,0.10978 -0.377828,0.26597 -0.49901,0.34708 -0.121177,0.0811 -0.226204,0.16597 -0.233388,0.18859 -0.03233,0.10188 -0.01162,0.10901 0.715234,0.24518 0.378428,0.0709 1.194315,0.22531 1.813089,0.34311 0.618767,0.11781 1.136638,0.21509 1.150834,0.21618 0.014,0.001 0.04436,-0.0166 0.06705,-0.0393 z m -3.839986,-0.25925 c -0.03675,-0.10675 -0.08217,-0.18838 -0.08215,-0.14763 -5.7e-5,0.0267 0.108277,0.28484 0.11614,0.27698 0.0042,-0.004 -0.01101,-0.0625 -0.03401,-0.12933 z"
       id="path12226"
       sodipodi:nodetypes="scssscccccsccsccscsscsccscccccscsssccsccccccsccsccsccsscccsscscscccccsssssssccscscsscccccsccsccssccscssssscscccsccscccccscccsscssccccscsscsccccccccccsccccsscsscccscscccccssssssccsccscccscsccccsssccccssscccsccccscscssccscccccssssccscscsscccccccccccccsssccscsssccscscsssccsssccccccssscscsccccsc" /><path
       style="fill:#ffffff;stroke:#4b4b4b;stroke-width:0.210043"
       d="m 76.61099,123.08968 c -0.549627,-0.13886 -1.182663,-0.33129 -1.258224,-0.38247 l -0.08916,-0.0604 0.0091,-0.88777 c 0.0089,-0.86663 0.0105,-0.88931 0.06947,-0.95292 0.07873,-0.0849 0.465976,-0.26814 0.935688,-0.4427 0.455072,-0.16912 0.597394,-0.20887 0.667803,-0.18653 0.05711,0.0181 0.364399,0.39845 0.75945,0.93994 0.178202,0.24426 0.239961,0.35092 0.239961,0.41443 0,0.1379 -0.30403,0.65889 -0.668853,1.14616 -0.320729,0.42838 -0.401997,0.47875 -0.665203,0.41225 z"
       id="path12462" /><path
       style="fill:#ffffff;stroke:#4b4b4b;stroke-width:0.210043"
       d="m 74.87601,120.26304 c -0.444034,-0.22834 -0.654409,-0.3625 -0.654409,-0.41733 0,-0.11568 0.542313,-0.75749 0.748338,-0.88562 0.09596,-0.0597 0.123067,-0.0617 0.839501,-0.0617 0.827781,0 0.80455,-0.005 0.912405,0.2084 0.05568,0.11033 0.25803,0.80771 0.239683,0.82606 -0.0066,0.007 -0.04305,-0.008 -0.08102,-0.0332 -0.07913,-0.0519 -0.149352,-0.20352 -0.254169,-0.54895 -0.04045,-0.13331 -0.0854,-0.24971 -0.09989,-0.25866 -0.03991,-0.0247 -0.0328,0.0285 0.04581,0.34245 0.08361,0.33392 0.07512,0.44283 -0.04224,0.54158 -0.134848,0.11347 -1.059959,0.49122 -1.204995,0.49204 -0.02735,1.5e-4 -0.229409,-0.0921 -0.449021,-0.20506 z"
       id="path12464" /><path
       style="fill:#ffffff;stroke:#4b4b4b;stroke-width:0.210043"
       d="m 74.09656,122.96964 c -0.132396,-0.0535 -0.3023,-0.31239 -0.56785,-0.86529 -0.205912,-0.42872 -0.286878,-0.66646 -0.261566,-0.76803 0.03182,-0.12769 0.223281,-0.52515 0.389285,-0.80813 0.219033,-0.37338 0.280147,-0.44883 0.363556,-0.44883 0.09732,0 0.586708,0.26131 0.778435,0.41565 0.225636,0.18163 0.242895,0.22712 0.242895,0.64025 0,0.48371 -0.06874,1.47896 -0.105221,1.5235 -0.03789,0.0463 -0.229356,0.14261 -0.46441,0.23368 -0.230883,0.0895 -0.306346,0.10499 -0.375124,0.0772 z"
       id="path12466" /><path
       style="fill:#ffffff;stroke:#4b4b4b;stroke-width:0.210043"
       d="m 75.597053,123.75667 c -0.312983,-0.0254 -0.648339,-0.0743 -0.72246,-0.10553 -0.07398,-0.0311 -0.652992,-0.4755 -0.652992,-0.50114 0,-0.0143 0.686402,-0.2798 0.81345,-0.31465 0.09307,-0.0255 0.17761,-0.009 0.750247,0.15113 0.559611,0.15601 0.728998,0.19965 1.069112,0.27549 0.04735,0.0106 0.06252,0.0336 0.06252,0.095 0,0.14 -0.04833,0.21722 -0.199783,0.31922 l -0.146812,0.0989 -0.431068,-0.005 c -0.237087,-0.003 -0.481084,-0.009 -0.542215,-0.0137 z"
       id="path12468" /><path
       style="fill:#ffffff;stroke:#4b4b4b;stroke-width:0.210043"
       d="m 78.065428,121.23946 c -0.131818,-0.14 -0.945265,-1.22734 -0.963068,-1.28734 -0.09058,-0.30525 -0.216605,-0.82339 -0.20347,-0.83652 0.01937,-0.0194 0.26925,0.18887 0.485229,0.40437 0.194535,0.19411 0.341134,0.42394 0.627953,0.98451 0.257304,0.50288 0.30804,0.67767 0.223749,0.77081 -0.06459,0.0714 -0.07067,0.0701 -0.170393,-0.0358 z"
       id="path12470" /><path
       style="fill:#ffffff;stroke:#4b4b4b;stroke-width:0.210043"
       d="m 76.857727,118.30794 c -0.01652,-0.042 -0.179629,-0.4953 -0.362459,-1.00727 -0.18283,-0.51197 -0.444753,-1.24167 -0.582051,-1.62154 -0.137298,-0.37988 -0.245744,-0.71124 -0.240991,-0.73636 0.01144,-0.0604 0.147787,-0.0722 0.380754,-0.0327 0.475838,0.0805 3.165017,0.6197 3.200029,0.64162 0.03309,0.0207 0.02695,0.0492 -0.03695,0.17143 -0.152445,0.2915 -0.560432,0.79594 -1.641161,2.02914 -0.591896,0.67539 -0.65186,0.72186 -0.71717,0.55573 z"
       id="path12472" /><path
       style="fill:#ffffff;stroke:#4b4b4b;stroke-width:0.210043"
       d="m 76.344818,118.05607 c -0.455835,-0.41054 -1.42048,-1.38166 -1.472639,-1.48253 -0.03196,-0.0618 -0.04125,-0.1273 -0.0307,-0.21638 0.01521,-0.1284 0.387364,-1.08804 0.498939,-1.28656 l 0.05975,-0.10631 0.04639,0.0914 c 0.02551,0.0503 0.298338,0.77292 0.606276,1.60583 0.307938,0.83291 0.572535,1.54414 0.587992,1.5805 0.01546,0.0364 0.0234,0.0708 0.01764,0.0766 -0.0058,0.006 -0.146897,-0.11241 -0.313644,-0.26258 z"
       id="path12474" /><path
       style="fill:#ffffff;stroke:#4b4b4b;stroke-width:0.210043"
       d="m 77.68107,115.00934 c -2.001931,-0.38247 -1.948004,-0.37119 -1.984281,-0.4149 -0.04228,-0.051 0.02175,-0.10431 0.656253,-0.54683 0.929824,-0.64848 0.948506,-0.65591 1.208303,-0.48007 0.14807,0.10022 1.724398,1.46299 1.839873,1.59061 0.05113,0.0565 0.05122,0.0604 0.0026,0.11408 -0.02766,0.0306 -0.05773,0.0544 -0.06683,0.053 -0.0091,-0.001 -0.754276,-0.14357 -1.655961,-0.31584 z"
       id="path12476" /><path
       style="fill:#ffffff;stroke:#4b4b4b;stroke-width:0.210043"
       d="m 81.571236,118.64041 c -0.16811,-0.0873 -0.771147,-0.40821 -1.340082,-0.71305 -1.005399,-0.5387 -1.03308,-0.55575 -0.986435,-0.60752 0.05746,-0.0638 1.335261,-1.09894 1.681254,-1.362 0.358876,-0.27285 0.298237,-0.28501 1.373077,0.2752 1.062301,0.55367 1.574994,0.83673 1.662591,0.91791 0.09136,0.0847 0.06495,0.15165 -0.136589,0.34639 -0.189195,0.18281 -0.284173,0.22745 -0.114722,0.0539 0.183179,-0.18759 0.08486,-0.1572 -0.172154,0.0532 -0.567894,0.46493 -1.30801,1.05392 -1.410705,1.12264 -0.06086,0.0407 -0.142135,0.0736 -0.180615,0.0731 -0.03848,-5.3e-4 -0.207509,-0.0724 -0.37562,-0.15977 z"
       id="path12478" /><path
       style="fill:#ffffff;stroke:#4b4b4b;stroke-width:0.210043"
       d="m 81.737958,121.43673 c -0.230124,-0.12015 -2.065773,-1.14777 -2.287286,-1.28046 -0.136205,-0.0816 -0.241024,-0.16462 -0.255338,-0.20227 -0.04531,-0.11918 -0.182083,-2.30278 -0.149548,-2.38756 0.01177,-0.0307 0.03631,-0.0397 0.07655,-0.0282 0.112751,0.0323 0.978909,0.4785 1.615297,0.83217 0.828603,0.46049 1.055413,0.56967 1.183499,0.56967 0.08028,0 0.150495,-0.0341 0.32102,-0.15567 0.120047,-0.0856 0.246353,-0.18153 0.280679,-0.21314 0.03433,-0.0316 0.06887,-0.051 0.07677,-0.0431 0.0079,0.008 -0.09877,0.11291 -0.237029,0.23336 -0.138262,0.12046 -0.271001,0.24895 -0.294975,0.28554 -0.05289,0.0807 -0.06178,0.20671 -0.103121,1.46264 -0.03563,1.08229 -0.02358,1.03296 -0.226512,0.92702 z m 0.162283,-0.11391 c 0.0085,-0.0344 0.02342,-0.51892 0.03312,-1.07674 0.01708,-0.98232 0.01589,-1.01696 -0.03789,-1.10131 -0.08745,-0.13717 -0.184894,-0.19729 -1.139934,-0.70332 -1.1269,-0.5971 -1.505914,-0.7874 -1.52673,-0.76659 -0.03965,0.0397 0.142562,0.15132 0.911407,0.55854 1.557198,0.82476 1.636269,0.87007 1.685904,0.96603 0.04084,0.079 0.04356,0.19579 0.02648,1.13696 -0.01152,0.6348 -0.0089,1.04895 0.0066,1.04895 0.01408,0 0.03257,-0.0281 0.04108,-0.0625 z"
       id="path12480" /><path
       style="fill:#ffffff;stroke:#4b4b4b;stroke-width:0.210043"
       d="m 82.059463,121.41678 c -0.01528,-0.0286 -0.02324,-0.0567 -0.01769,-0.0625 0.0056,-0.006 0.02398,-0.41073 0.04095,-0.89978 0.01696,-0.48905 0.0383,-0.98296 0.0474,-1.09758 l 0.01656,-0.2084 0.323587,-0.3198 c 0.28783,-0.28446 1.241285,-1.09821 1.494635,-1.27564 0.08795,-0.0616 0.09958,-0.0635 0.140409,-0.0226 0.04083,0.0408 0.03943,0.11773 -0.01693,0.92855 -0.07636,1.09861 -0.09111,1.20969 -0.173679,1.30781 -0.128101,0.15224 -1.773091,1.70063 -1.807596,1.70145 -0.01093,2.5e-4 -0.03237,-0.0229 -0.04765,-0.0515 z"
       id="path12482" /><path
       style="fill:#ffffff;stroke:#4b4b4b;stroke-width:0.105021"
       d="m 77.028358,123.42591 c 8.46e-4,-0.0795 0.02999,-0.20873 0.06438,-0.28562 0.02158,-0.0482 0.114724,-0.18777 0.20698,-0.31003 0.09226,-0.12226 0.188269,-0.25243 0.213362,-0.28926 0.06726,-0.0987 0.06961,-0.0674 0.0029,0.0383 -0.03151,0.0499 -0.08298,0.14167 -0.11439,0.20395 -0.0466,0.0924 -0.05578,0.12313 -0.0499,0.16697 0.0063,0.0471 -0.002,0.0684 -0.0679,0.17334 -0.07492,0.11933 -0.194006,0.2772 -0.234388,0.31071 -0.01786,0.0148 -0.02126,0.0135 -0.02102,-0.008 z"
       id="path12763" /><path
       style="fill:#ffffff;stroke:#4b4b4b;stroke-width:0.0525108"
       d="m 77.424042,122.8765 c 0,-0.007 0.01678,-0.0453 0.03729,-0.0851 0.102969,-0.19961 0.286304,-0.47986 0.449628,-0.6873 0.0613,-0.0778 0.117449,-0.1597 0.117449,-0.1712 0,-0.0213 -0.02619,-0.006 -0.07571,0.0446 -0.06314,0.0644 -0.148302,0.17535 -0.266677,0.34748 -0.06742,0.098 -0.08824,0.1239 -0.0915,0.11364 -0.003,-0.009 0.01669,-0.0452 0.06786,-0.12344 0.07881,-0.12046 0.173254,-0.27575 0.240231,-0.39499 0.09809,-0.17463 0.318655,-0.44889 0.346948,-0.4314 0.0096,0.006 -5.82e-4,0.04 -0.03851,0.12877 -0.04642,0.10872 -0.11984,0.25669 -0.175158,0.35301 -0.103812,0.18076 -0.592939,0.91869 -0.608941,0.91869 -0.0016,0 -0.0029,-0.006 -0.0029,-0.0128 z"
       id="path12765" /><path
       style="fill:#000000;fill-opacity:1;stroke:#000000;stroke-width:2;stroke-dasharray:none;stroke-opacity:1"
       d="m 82.932165,114.37214 -8.485282,8.48528"
       id="path19041" /><path
       style="fill:#000000;fill-opacity:1;stroke:#000000;stroke-width:2;stroke-dasharray:none;stroke-opacity:1"
       d="m 74.446883,114.37214 8.485282,8.48528"
       id="path19043" /></g></svg>
