<?xml version="1.0" encoding="UTF-8" standalone="no"?>
<!-- Created with Inkscape (http://www.inkscape.org/) -->

<svg
   width="15.993721mm"
   height="15.993721mm"
   viewBox="0 0 15.993721 15.993721"
   version="1.1"
   id="svg5"
   sodipodi:docname="rollButton.svg"
   inkscape:version="1.2.1 (9c6d41e410, 2022-07-14)"
   xml:space="preserve"
   xmlns:inkscape="http://www.inkscape.org/namespaces/inkscape"
   xmlns:sodipodi="http://sodipodi.sourceforge.net/DTD/sodipodi-0.dtd"
   xmlns="http://www.w3.org/2000/svg"
   xmlns:svg="http://www.w3.org/2000/svg"><sodipodi:namedview
     id="namedview7"
     pagecolor="#ffffff"
     bordercolor="#000000"
     borderopacity="0.25"
     inkscape:showpageshadow="false"
     inkscape:pageopacity="0.0"
     inkscape:pagecheckerboard="true"
     inkscape:deskcolor="#d1d1d1"
     inkscape:document-units="mm"
     showgrid="false"
     showborder="false"
     borderlayer="false"
     shape-rendering="auto"
     inkscape:zoom="9.5218728"
     inkscape:cx="28.828363"
     inkscape:cy="22.737124"
     inkscape:window-width="1920"
     inkscape:window-height="1001"
     inkscape:window-x="-9"
     inkscape:window-y="-9"
     inkscape:window-maximized="1"
     inkscape:current-layer="layer1" /><defs
     id="defs2" /><g
     inkscape:label="Capa 1"
     inkscape:groupmode="layer"
     id="layer1"
     transform="translate(-70.692667,-110.61792)"><g
       id="g1159"
       transform="rotate(45,78.689522,118.61478)"><circle
         style="fill:#46fa50;fill-opacity:1;stroke:#4b4b4b;stroke-width:1;stroke-dasharray:none;stroke-opacity:1"
         id="path163-7"
         cx="78.689522"
         cy="118.61478"
         r="7.5" /><path
         style="fill:#000000;stroke-width:0.0206429"
         d="m 80.111593,124.58764 c -0.425773,0.38517 -0.550281,0.43328 -1.294962,0.50043 -0.381283,0.0344 -0.454204,0.0286 -0.790943,-0.0625 -0.358508,-0.0971 -0.627815,-0.19237 -0.897023,-0.31744 -0.449112,-0.20866 -0.454638,-0.21392 -0.613241,-0.58369 -0.293728,-0.68482 -0.423336,-1.32657 -0.408431,-2.02233 0.0078,-0.36344 0.03566,-0.55712 0.09934,-0.69024 0.100523,-0.21013 0.660071,-0.78404 1.037444,-1.0641 0.281503,-0.2089 0.552611,-0.26243 1.255598,-0.24786 0.346831,0.008 0.496733,0.0404 0.977498,0.21646 0.904255,0.33121 0.919328,0.34191 1.053216,0.74732 0.123718,0.37462 0.463031,1.89183 0.468232,2.09366 0.0027,0.10992 -0.04309,0.49384 -0.0695,0.58109 -0.01706,0.0564 -0.530003,0.58941 -0.817224,0.84924 z m 0.755519,-0.87579 c 0.0106,-0.0437 0.02813,-0.13842 0.03898,-0.21057 0.02072,-0.1381 0.01821,-0.14404 -0.131037,-0.30471 l -0.0474,-0.0511 -0.211261,0.13904 c -0.116193,0.0764 -0.461129,0.27674 -0.766526,0.445 -0.305401,0.16827 -0.576595,0.32097 -0.60266,0.33931 -0.03259,0.023 -0.108539,0.17009 -0.243479,0.47177 -0.107849,0.24111 -0.196751,0.44239 -0.197559,0.44728 -0.0052,0.0314 0.796638,-0.0564 0.864657,-0.0945 0.194939,-0.1093 0.677675,-0.51666 1.092466,-0.92188 0.162683,-0.15893 0.186872,-0.18975 0.203841,-0.25973 z m 0.02977,-0.90095 c -0.02361,-0.1063 -0.04921,-0.187 -0.05687,-0.17933 -0.0077,0.008 -0.02818,-2.9e-4 -0.04557,-0.0177 -0.09676,-0.0968 -0.307481,-1.18477 -0.229461,-1.18477 0.0076,0 0.02293,0.0804 0.03413,0.17873 0.04637,0.40716 0.175289,0.94036 0.227364,0.94036 0.01262,0 -0.144574,-0.79024 -0.21008,-1.05625 -0.04424,-0.17962 -0.161787,-0.50241 -0.195103,-0.53573 -0.05581,-0.0558 -0.02459,0.2819 0.05984,0.64754 0.04819,0.2087 0.117521,0.55977 0.154045,0.78014 0.09116,0.55002 0.108298,0.60769 0.220672,0.74271 l 0.09283,0.11154 -0.0045,-0.117 c -0.0024,-0.0643 -0.02376,-0.20395 -0.04736,-0.31024 z m -0.299155,0.24983 c 0.06064,-0.14155 -0.0141,-0.73211 -0.174182,-1.37579 -0.116657,-0.46914 -0.142395,-0.51458 -0.318631,-0.56262 -0.138955,-0.0379 -1.274714,-0.19833 -1.426831,-0.20158 -0.09326,-0.002 -0.135153,0.009 -0.168591,0.0419 -0.05597,0.056 -0.260137,0.47148 -0.435658,0.88664 -0.182273,0.43113 -0.206414,0.50299 -0.214497,0.63849 l -0.0069,0.11672 0.287691,0.30741 c 0.158231,0.16905 0.429684,0.45663 0.603232,0.63905 0.308341,0.32408 0.317357,0.332 0.395111,0.34686 0.09657,0.0185 0.18068,-0.0208 0.770572,-0.35935 0.229528,-0.13174 0.455287,-0.26069 0.501687,-0.28653 0.115121,-0.0641 0.146289,-0.096 0.187061,-0.19115 z m -1.814723,1.48639 c 0.183621,-0.44682 0.184905,-0.43131 -0.05579,-0.67317 -0.08557,-0.086 -0.213286,-0.22647 -0.283813,-0.31221 -0.513895,-0.62464 -0.767825,-0.86578 -0.944139,-0.89656 -0.210868,-0.0369 -0.960475,0.15133 -1.080253,0.27111 -0.07064,0.0707 -0.07093,0.0945 -0.0047,0.39073 0.06024,0.26939 0.151644,0.56849 0.258111,0.84471 0.07528,0.19531 0.09477,0.22888 0.166225,0.28628 0.20924,0.16806 1.321971,0.54112 1.575667,0.52824 0.161468,-0.009 0.220452,-0.0785 0.368672,-0.43913 z m 0.234741,-0.53302 c -0.0082,-0.0548 -0.08095,-0.13993 -0.636394,-0.74533 -0.568721,-0.61988 -0.627078,-0.68849 -0.627078,-0.73715 -4e-6,-0.0731 0.499362,-1.30589 0.614976,-1.51822 0.04702,-0.0864 0.04266,-0.10967 -0.01731,-0.0927 -0.04873,0.0137 -0.07117,0.0559 -0.187383,0.35158 -0.141174,0.35922 -0.461424,1.05319 -0.51029,1.10578 -0.06527,0.0702 -0.110657,0.0874 -0.454161,0.17166 -0.175752,0.0431 -0.409941,0.10589 -0.520415,0.1395 -0.110479,0.0336 -0.222174,0.0628 -0.248211,0.0649 -0.08872,0.008 -0.136603,-0.0735 -0.182261,-0.3066 l -0.04274,-0.21818 0.0041,0.26973 c 0.0054,0.36262 0.04247,0.51054 0.102703,0.40994 0.02846,-0.0476 0.364928,-0.15561 0.830973,-0.26691 0.449858,-0.10744 0.443967,-0.10949 0.84939,0.29619 0.416647,0.41691 0.922402,0.98918 0.964223,1.09103 0.01797,0.0438 0.03566,0.0826 0.03937,0.0863 0.01651,0.0165 0.02904,-0.0452 0.02057,-0.10138 z m 1.257918,-3.20138 c -0.01911,-0.16014 -0.211816,-0.25101 -1.088406,-0.5133 -0.388652,-0.1163 -0.558424,-0.14603 -0.810222,-0.14192 -0.278562,0.005 -0.645748,0.036 -0.666876,0.0572 -0.01202,0.012 0.109237,0.0899 0.368955,0.2368 0.212776,0.1204 0.408507,0.23268 0.434953,0.24952 0.02645,0.0169 0.180248,0.0469 0.341779,0.0669 0.161533,0.02 0.497223,0.0656 0.745982,0.10159 0.527322,0.0762 0.612457,0.0816 0.652469,0.0415 0.01627,-0.0163 0.02589,-0.0605 0.02136,-0.0983 z m -4.018869,2.38259 c -0.01116,0 0.100897,0.41159 0.160353,0.58907 0.04256,0.12708 0.150344,0.38283 0.169327,0.40181 0.0041,0.004 -0.06659,-0.21723 -0.157,-0.49175 -0.09041,-0.27453 -0.168114,-0.49913 -0.17268,-0.49913 z m 1.574366,-1.25146 c 0.166981,-0.3661 0.294212,-0.68865 0.314523,-0.79738 0.03712,-0.19872 -0.07234,-0.31587 -0.523725,-0.56052 -0.07083,-0.0384 -0.128798,-0.0779 -0.128798,-0.0877 0,-0.0273 7.88e-4,-0.0269 0.334004,0.15304 0.19614,0.10596 0.340202,0.17104 0.387831,0.1752 0.06616,0.006 0.185718,-0.0179 0.209197,-0.0414 0.01636,-0.0163 -0.08296,-0.0975 -0.15605,-0.12757 -0.04156,-0.0171 -0.141803,-0.0708 -0.222772,-0.1193 -0.381424,-0.22874 -0.549089,-0.2821 -0.670909,-0.21351 -0.06867,0.0387 -0.969006,0.94088 -1.044631,1.04681 -0.053,0.0743 -0.05979,0.11169 -0.06377,0.35173 -0.0047,0.28226 0.0238,0.59522 0.07394,0.81239 0.02515,0.10894 0.03763,0.13218 0.0795,0.14783 0.03397,0.0127 0.194466,-0.0242 0.508185,-0.11674 0.513786,-0.15164 0.640651,-0.19985 0.714712,-0.27161 0.0281,-0.0273 0.113038,-0.18531 0.188755,-0.35132 z m 5.172084,-3.43352 c -0.03433,0.0183 -0.157946,0.0589 -0.274697,0.0902 -0.116752,0.0313 -0.403765,0.12019 -0.637809,0.1974 -0.234044,0.0772 -0.637671,0.19907 -0.896952,0.27079 -0.259281,0.0718 -0.588682,0.16533 -0.732007,0.20802 -0.336151,0.10015 -0.441061,0.10464 -0.587342,0.0252 -0.03511,-0.019 -0.188038,-0.14689 -0.339872,-0.28408 -0.151829,-0.13718 -0.454751,-0.40573 -0.673165,-0.59675 -0.218411,-0.19103 -0.483151,-0.43205 -0.588309,-0.53563 -0.182729,-0.17999 -0.192427,-0.19305 -0.218945,-0.29524 -0.03121,-0.12021 -0.02909,-0.16668 0.02723,-0.5932 0.02198,-0.16648 0.05146,-0.41139 0.06552,-0.54423 0.102624,-0.96932 0.171755,-1.52736 0.196756,-1.58825 0.03823,-0.0931 0.165008,-0.21847 0.273441,-0.27041 0.0475,-0.0227 0.302169,-0.10802 0.565927,-0.18948 0.263754,-0.0815 0.648417,-0.20257 0.8548,-0.26914 0.206386,-0.0666 0.444486,-0.13923 0.529112,-0.16147 0.08463,-0.0223 0.175128,-0.05 0.201119,-0.0617 0.09781,-0.0439 0.596248,-0.17608 0.671392,-0.17807 0.04305,-8e-4 0.122959,0.0132 0.17756,0.0318 0.08517,0.0291 0.120806,0.0559 0.250748,0.18892 0.202139,0.2069 0.73079,0.79505 0.87752,0.97627 0.06466,0.0798 0.199073,0.23928 0.298706,0.35429 0.269732,0.31137 0.262177,0.27031 0.241381,1.31209 -0.02498,1.25136 -0.03812,1.57371 -0.06741,1.65594 -0.03302,0.0926 -0.134482,0.21391 -0.21471,0.2566 z m 0.02305,-0.16015 c 0.0024,-0.0146 -0.07383,-0.10302 -0.178588,-0.20777 -0.342595,-0.3426 -1.398986,-1.47636 -1.42991,-1.53464 -0.01698,-0.032 -0.02968,-0.11923 -0.02826,-0.19389 0.0024,-0.12548 0.06074,-0.92857 0.144346,-1.98753 0.03023,-0.38254 0.02904,-0.44677 -0.0093,-0.51338 -0.03795,-0.0659 -0.05266,-0.0775 -0.109502,-0.0863 -0.08236,-0.0127 -0.738951,0.17667 -1.829879,0.52769 -0.230804,0.0743 -0.505203,0.16115 -0.609773,0.19305 -0.104571,0.0319 -0.23443,0.0715 -0.28857,0.088 -0.147625,0.045 -0.257767,0.16233 -0.2852,0.30392 -0.03515,0.18142 -0.275384,2.41907 -0.262339,2.44358 0.0068,0.0128 0.08341,-7.9e-4 0.172783,-0.0301 0.08832,-0.0291 0.615157,-0.18964 1.170743,-0.35659 1.667181,-0.50096 1.618118,-0.48457 1.669192,-0.55805 0.06405,-0.0922 0.09087,-0.24932 0.164448,-0.96364 0.0361,-0.35033 0.07776,-0.75481 0.09262,-0.89887 0.01485,-0.14406 0.0305,-0.29592 0.03475,-0.33745 0.01336,-0.13047 0.03878,-0.0518 0.03338,0.10334 -0.0027,0.0815 -0.02554,0.33136 -0.05043,0.55534 -0.02491,0.22397 -0.07173,0.66979 -0.104055,0.9907 l -0.05879,0.58346 -0.08758,0.0876 c -0.08426,0.0843 -0.10716,0.0934 -0.604118,0.24249 -0.284092,0.0853 -0.682084,0.19955 -0.884424,0.25412 -0.202335,0.0546 -0.617651,0.18127 -0.922918,0.28157 -0.654746,0.21512 -0.662135,0.22031 -0.518889,0.36462 0.04983,0.0502 0.448963,0.4095 0.886947,0.79842 0.653677,0.58045 0.809972,0.71179 0.87249,0.73315 0.06833,0.0233 0.188291,-0.006 1.166502,-0.28492 0.599693,-0.17102 1.234665,-0.35054 1.411054,-0.39894 0.357164,-0.098 0.433029,-0.13206 0.443268,-0.19899 z m -0.691614,-0.57785 c -0.799288,-0.83766 -0.925282,-0.96053 -1.011268,-0.98618 -0.03921,-0.0117 -0.102268,-0.0159 -0.140113,-0.009 -0.06529,0.0114 -2.170059,0.65422 -2.503291,0.76466 -0.139175,0.0461 -0.267272,0.0559 -0.267272,0.0204 0,-0.0111 0.334855,-0.12032 0.903194,-0.29461 0.110591,-0.0339 0.546983,-0.16898 0.969755,-0.30016 0.422776,-0.13117 0.809654,-0.2435 0.85973,-0.24962 0.05008,-0.007 0.135566,0.003 0.189982,0.0196 l 0.09893,0.0308 0.647881,0.66582 c 0.684378,0.70334 0.836681,0.87114 0.812558,0.89526 -0.01005,0.0101 -0.191537,-0.17032 -0.560091,-0.55655 z m 0.856929,-0.70689 c 0.01379,-0.61768 0.02826,-1.17436 0.03216,-1.23706 0.004,-0.0627 -0.0041,-0.14526 -0.0177,-0.18345 -0.02514,-0.0706 -0.228035,-0.31495 -0.876964,-1.05642 -0.172362,-0.19694 -0.351281,-0.40267 -0.397598,-0.45717 -0.107699,-0.12674 -0.16368,-0.15995 -0.21642,-0.12838 -0.05746,0.0344 -0.08391,0.13089 -0.09249,0.33743 -0.0041,0.0967 -0.02061,0.29371 -0.03692,0.43788 -0.07914,0.70074 -0.132634,1.43271 -0.115925,1.58615 0.02298,0.21093 0.04569,0.25077 0.298008,0.52243 0.127578,0.13735 0.447946,0.48574 0.711933,0.77417 0.263986,0.28844 0.501249,0.53718 0.527251,0.55275 0.06481,0.0388 0.112895,0.0404 0.138237,0.005 0.01171,-0.0165 0.0326,-0.53539 0.04641,-1.15308 z m -4.097207,1.43922 c -0.377057,-0.33491 -0.694566,-0.61306 -0.705572,-0.61811 -0.03831,-0.0175 0.09608,0.11082 0.307431,0.29374 0.116992,0.10125 0.382807,0.34123 0.590699,0.53329 0.354303,0.3273 0.493002,0.44349 0.493002,0.41294 0,-0.008 -0.308503,-0.28695 -0.68556,-0.62186 z M 78.22729,117.7494 c -0.01788,-0.0104 -0.01308,7.9e-4 0.01068,0.0252 0.0238,0.0244 0.03842,0.0331 0.03256,0.0191 -0.0059,-0.0138 -0.02534,-0.0338 -0.04325,-0.0443 z m -0.977298,2.14958 c -0.117686,0.0546 -0.279844,0.0706 -0.959103,0.0944 -0.703141,0.0246 -1.720607,0.0133 -1.806769,-0.02 -0.128788,-0.0498 -0.20452,-0.15687 -0.362849,-0.51271 -0.285067,-0.64068 -0.512049,-1.21754 -0.542463,-1.37863 -0.02025,-0.10725 -0.0065,-0.23823 0.06332,-0.60605 0.02435,-0.12818 0.0709,-0.38379 0.103434,-0.56802 0.15811,-0.89528 0.164463,-0.92132 0.24439,-1.00124 0.101787,-0.10179 0.25665,-0.15608 0.525959,-0.18437 0.273922,-0.0288 1.670491,-0.12131 2.12688,-0.14089 0.53326,-0.0229 0.59557,0.0603 0.630528,0.84262 0.0098,0.21992 0.02526,0.54354 0.03429,0.71915 0.009,0.17561 0.01605,0.32627 0.01553,0.33478 -3.94e-4,0.009 0.01266,0.25155 0.02919,0.54008 0.01655,0.28853 0.03606,0.64998 0.04338,0.80322 0.0074,0.15325 0.02054,0.35021 0.0294,0.4377 0.0466,0.46109 0.02274,0.54826 -0.17514,0.64003 z m 0.101792,-0.25956 c 0.0068,-0.0225 0.0031,-0.16002 -0.0083,-0.30546 -0.01143,-0.14544 -0.0305,-0.44521 -0.04241,-0.66612 -0.0119,-0.22093 -0.03515,-0.55235 -0.05173,-0.73649 -0.01655,-0.18415 -0.03685,-0.44076 -0.04509,-0.57025 -0.02647,-0.41649 -0.111498,-1.00804 -0.171041,-1.19032 -0.04039,-0.12367 -0.07828,-0.15842 -0.141663,-0.12996 -0.02813,0.0126 -0.334984,0.21483 -0.681914,0.44934 -0.346933,0.23449 -0.906932,0.61001 -1.244439,0.83448 -1.062158,0.70641 -1.107878,0.74591 -0.994591,0.8592 0.02359,0.0235 0.246682,0.13614 0.495769,0.25012 0.428608,0.19613 1.025628,0.47827 2.192863,1.03627 0.282441,0.13503 0.537612,0.25098 0.567046,0.25768 0.05686,0.013 0.105165,-0.0211 0.125568,-0.0885 z m -0.271793,0.19419 c -0.0051,-0.005 -0.285433,-0.13535 -0.622912,-0.28938 -1.073814,-0.49014 -1.805446,-0.82564 -2.143851,-0.98312 -0.42915,-0.1997 -0.525491,-0.23763 -0.539507,-0.21242 -0.02326,0.0419 0.112523,0.39797 0.414746,1.08786 0.141262,0.32246 0.205848,0.40619 0.35242,0.45683 0.09745,0.0337 1.100789,0.0375 1.975483,0.008 0.467212,-0.0159 0.599267,-0.0318 0.563621,-0.0674 z m 0.0237,-3.98708 c -0.01434,-0.0403 -0.04392,-0.091 -0.06573,-0.11284 -0.03409,-0.0341 -0.04294,-0.0338 -0.06329,0.003 -0.06528,0.11606 -0.13497,0.18388 -0.307079,0.29881 -0.101044,0.0675 -0.433845,0.29294 -0.739561,0.50103 -0.305718,0.20808 -0.877074,0.59537 -1.269681,0.86064 -0.392609,0.26524 -0.720383,0.48922 -0.728389,0.49772 -0.039,0.0413 0.06735,-0.0131 0.173171,-0.0888 0.134898,-0.0964 1.104872,-0.75528 1.964464,-1.33441 0.316577,-0.21328 0.631452,-0.42803 0.699719,-0.47721 0.138948,-0.10011 0.232929,-0.1228 0.286552,-0.0691 0.05181,0.0518 0.08024,0.008 0.04981,-0.0782 z m -0.247929,-0.0907 c 0,-0.0625 -0.0086,-0.0771 -0.05893,-0.0995 -0.03085,-0.0137 -0.377971,0.003 -0.871702,0.0408 -0.128582,0.01 -0.477886,0.0331 -0.776228,0.0513 -0.934048,0.0572 -0.971383,0.0651 -1.109124,0.23206 -0.06761,0.0819 -0.125864,0.32658 -0.234962,0.98647 -0.03075,0.18601 -0.07909,0.45524 -0.107427,0.59828 -0.02833,0.14304 -0.04259,0.27731 -0.03168,0.29838 0.04918,0.0949 0.06886,0.0853 0.679114,-0.33238 0.317727,-0.21745 1.003826,-0.68519 1.524664,-1.03943 0.520839,-0.35423 0.955819,-0.65163 0.966625,-0.6609 0.0108,-0.009 0.01963,-0.0431 0.01963,-0.0752 z m -2.8986,2.53196 c -0.101472,-0.0495 -0.191304,-0.0751 -0.162484,-0.0463 0.01882,0.0189 0.277977,0.12485 0.277977,0.11373 0,-0.006 -0.05197,-0.0364 -0.115493,-0.0674 z"
         id="path12226"
         sodipodi:nodetypes="scssscccccsccsccscsscsccscccccscsssccsccccccsccsccsccsscccsscscscccccsssssssccscscsscccccsccsccssccscssssscscccsccscccccscccsscssccccscsscsccccccccccsccccsscsscccscscccccssssssccsccscccscsccccsssccccssscccsccccscscssccscccccssssccscscsscccccccccccccsssccscsssccscscsssccsssccccccssscscsccccsc" /><path
         style="fill:#ffffff;stroke:#4b4b4b;stroke-width:0.793862"
         d="m 22.368471,47.137357 c -2.077328,-0.524827 -4.469905,-1.252115 -4.755489,-1.44556 l -0.336969,-0.228249 0.03427,-3.355334 c 0.03345,-3.275472 0.0397,-3.361194 0.262554,-3.601584 0.297553,-0.320968 1.76117,-1.013449 3.53646,-1.673206 1.719957,-0.639193 2.257866,-0.789438 2.523979,-0.704977 0.215851,0.06851 1.377255,1.505918 2.870363,3.552497 0.673521,0.923185 0.906939,1.326317 0.906939,1.566361 0,0.521197 -1.149088,2.490308 -2.527947,4.331964 -1.212206,1.619069 -1.519359,1.80942 -2.514156,1.558088 z"
         id="path12462"
         transform="matrix(0.18708867,-0.18708867,0.18708867,0.18708867,67.380258,118.61478)" /><path
         style="fill:#ffffff;stroke:#4b4b4b;stroke-width:0.793862"
         d="m 15.811068,36.453999 c -1.67824,-0.863029 -2.473356,-1.370087 -2.473356,-1.577298 0,-0.437241 2.049686,-2.862953 2.828363,-3.347241 0.362688,-0.225569 0.465134,-0.233096 3.172916,-0.233096 3.128621,0 3.040821,-0.02005 3.44846,0.787661 0.210458,0.417011 0.975233,3.052769 0.905891,3.12211 -0.02492,0.02492 -0.162714,-0.03161 -0.306205,-0.12563 -0.299057,-0.195949 -0.564479,-0.769197 -0.960639,-2.074746 -0.152897,-0.503876 -0.322779,-0.943817 -0.377515,-0.977645 -0.150845,-0.09323 -0.123961,0.107744 0.17314,1.294304 0.316008,1.262072 0.2839,1.673719 -0.159657,2.046948 -0.509659,0.42885 -4.006142,1.856557 -4.55431,1.859646 -0.103369,5.78e-4 -0.867058,-0.348173 -1.697088,-0.775013 z"
         id="path12464"
         transform="matrix(0.18708867,-0.18708867,0.18708867,0.18708867,67.380258,118.61478)" /><path
         style="fill:#ffffff;stroke:#4b4b4b;stroke-width:0.793862"
         d="M 12.865116,46.68366 C 12.36472,46.481482 11.722563,45.502971 10.718912,43.413297 9.9406619,41.792924 9.6346482,40.894376 9.730316,40.510483 c 0.1202682,-0.482609 0.843896,-1.984815 1.471313,-3.054355 0.82784,-1.411195 1.058824,-1.696356 1.37407,-1.696356 0.367806,0 2.217477,0.987642 2.942117,1.570961 0.852796,0.68648 0.918026,0.858423 0.918026,2.419851 0,1.828193 -0.259792,5.589749 -0.397684,5.758111 -0.143213,0.174859 -0.86686,0.538977 -1.755253,0.883191 -0.872627,0.338107 -1.15784,0.396803 -1.417789,0.291774 z"
         id="path12466"
         transform="matrix(0.18708867,-0.18708867,0.18708867,0.18708867,67.380258,118.61478)" /><path
         style="fill:#ffffff;stroke:#4b4b4b;stroke-width:0.793862"
         d="m 18.53627,49.658273 c -1.182928,-0.09583 -2.450414,-0.280976 -2.730556,-0.398864 -0.279627,-0.117673 -2.468002,-1.797147 -2.468002,-1.894075 0,-0.05402 2.594276,-1.057504 3.074457,-1.189223 0.351741,-0.09649 0.67128,-0.03212 2.835577,0.57122 2.115066,0.589612 2.755268,0.754578 4.04074,1.04121 0.178977,0.03991 0.236298,0.126973 0.236298,0.358915 0,0.529131 -0.182659,0.820986 -0.755083,1.206479 l -0.55488,0.373678 -1.629233,-0.01765 c -0.896078,-0.0097 -1.818271,-0.03297 -2.049318,-0.05168 z"
         id="path12468"
         transform="matrix(0.18708867,-0.18708867,0.18708867,0.18708867,67.380258,118.61478)" /><path
         style="fill:#ffffff;stroke:#4b4b4b;stroke-width:0.793862"
         d="m 27.865562,40.144414 c -0.498211,-0.529145 -3.572656,-4.638785 -3.639943,-4.865546 -0.342335,-1.153688 -0.818666,-3.11202 -0.769021,-3.161665 0.0732,-0.0732 1.017639,0.71387 1.833937,1.528352 0.73525,0.733616 1.289326,1.602299 2.373367,3.720975 0.972485,1.90065 1.164245,2.561257 0.845663,2.913286 -0.2441,0.269728 -0.267114,0.264889 -0.644003,-0.135402 z"
         id="path12470"
         transform="matrix(0.18708867,-0.18708867,0.18708867,0.18708867,67.380258,118.61478)" /><path
         style="fill:#ffffff;stroke:#4b4b4b;stroke-width:0.793862"
         d="m 23.301023,29.064661 c -0.06245,-0.158845 -0.678913,-1.872006 -1.369924,-3.807025 -0.691011,-1.935018 -1.680957,-4.692916 -2.19988,-6.128662 -0.518922,-1.435746 -0.928796,-2.688126 -0.91083,-2.783066 0.04323,-0.228429 0.558564,-0.272755 1.43907,-0.123781 1.798444,0.304281 11.96227,2.342145 12.094597,2.424986 0.125085,0.07831 0.101847,0.186123 -0.139658,0.647932 -0.57617,1.101759 -2.118168,3.008293 -6.202814,7.669188 -2.237086,2.552686 -2.46372,2.728306 -2.710561,2.100428 z"
         id="path12472"
         transform="matrix(0.18708867,-0.18708867,0.18708867,0.18708867,67.380258,118.61478)" /><path
         style="fill:#ffffff;stroke:#4b4b4b;stroke-width:0.793862"
         d="m 21.36247,28.112678 c -1.722841,-1.551646 -5.368746,-5.222025 -5.565882,-5.603246 -0.120778,-0.233559 -0.155904,-0.481134 -0.11603,-0.817808 0.05748,-0.485291 1.464051,-4.11229 1.885753,-4.862609 l 0.225823,-0.401797 0.175327,0.345632 c 0.09643,0.190097 1.127577,2.92128 2.291438,6.069295 1.163861,3.148015 2.163912,5.836105 2.222334,5.973534 0.05842,0.137428 0.08842,0.267672 0.06666,0.289433 -0.02176,0.02176 -0.5552,-0.424836 -1.185423,-0.992434 z"
         id="path12474"
         transform="matrix(0.18708867,-0.18708867,0.18708867,0.18708867,67.380258,118.61478)" /><path
         style="fill:#ffffff;stroke:#4b4b4b;stroke-width:0.793862"
         d="m 26.412871,16.597496 c -7.566353,-1.445551 -7.362538,-1.402934 -7.499645,-1.568138 -0.159816,-0.192566 0.08219,-0.39422 2.480327,-2.066745 3.514292,-2.450963 3.584903,-2.479017 4.566814,-1.814437 0.559632,0.378773 6.517407,5.529393 6.95385,6.011748 0.193238,0.213566 0.193578,0.228278 0.01,0.431153 -0.104547,0.115524 -0.218206,0.205581 -0.252575,0.200128 -0.03437,-0.0055 -2.850805,-0.542622 -6.258748,-1.193709 z"
         id="path12476"
         transform="matrix(0.18708867,-0.18708867,0.18708867,0.18708867,67.380258,118.61478)" /><path
         style="fill:#ffffff;stroke:#4b4b4b;stroke-width:0.793862"
         d="m 41.115861,30.321218 c -0.635379,-0.330096 -2.914574,-1.542839 -5.064878,-2.694986 -3.799932,-2.036027 -3.904554,-2.100461 -3.728258,-2.296149 0.217184,-0.241074 5.046655,-4.153466 6.354346,-5.147705 1.35638,-1.031258 1.127194,-1.077193 5.189582,1.040129 4.014997,2.092622 5.952731,3.162439 6.283809,3.469271 0.345308,0.320021 0.245499,0.573136 -0.516243,1.309183 -0.715067,0.690948 -1.074038,0.859668 -0.433595,0.203795 0.692331,-0.709012 0.320717,-0.594152 -0.650662,0.201109 -2.146368,1.757217 -4.943659,3.983305 -5.331797,4.243053 -0.230015,0.15393 -0.537203,0.278207 -0.682639,0.276173 -0.145436,-0.002 -0.784285,-0.273777 -1.419665,-0.603873 z"
         id="path12478"
         transform="matrix(0.18708867,-0.18708867,0.18708867,0.18708867,67.380258,118.61478)" /><path
         style="fill:#ffffff;stroke:#4b4b4b;stroke-width:0.793862"
         d="m 41.745989,40.889976 c -0.869759,-0.454082 -7.807645,-4.338008 -8.64486,-4.839514 -0.51479,-0.308369 -0.910955,-0.622205 -0.965057,-0.764505 -0.171254,-0.450431 -0.688188,-8.703397 -0.56522,-9.023848 0.04447,-0.115875 0.137226,-0.150019 0.289312,-0.106491 0.426145,0.121965 3.699813,1.808492 6.105057,3.145203 3.131728,1.740453 3.988963,2.153075 4.47307,2.153075 0.303401,0 0.5688,-0.128697 1.213302,-0.588354 0.453723,-0.323594 0.9311,-0.686104 1.060836,-0.805577 0.129736,-0.119473 0.260301,-0.192808 0.290143,-0.162965 0.02984,0.02984 -0.373294,0.426744 -0.895859,0.882004 -0.522565,0.455259 -1.024255,0.940892 -1.114867,1.079183 -0.199912,0.305105 -0.233485,0.781302 -0.389747,5.528121 -0.134657,4.090521 -0.08911,3.904103 -0.85611,3.503668 z m 0.613354,-0.430498 c 0.03218,-0.129964 0.0885,-1.961274 0.125162,-4.069578 0.06456,-3.712694 0.06005,-3.843634 -0.143201,-4.162434 -0.330537,-0.518437 -0.698812,-0.745658 -4.308412,-2.658224 -4.259152,-2.256735 -5.691646,-2.976004 -5.770318,-2.897331 -0.149861,0.149861 0.538816,0.571899 3.444687,2.110989 5.885474,3.117233 6.184322,3.288476 6.371919,3.65116 0.154361,0.298427 0.164645,0.739977 0.100094,4.29716 -0.04354,2.399237 -0.03374,3.964556 0.02481,3.964556 0.05322,0 0.123081,-0.106334 0.15526,-0.236298 z"
         id="path12480"
         transform="matrix(0.18708867,-0.18708867,0.18708867,0.18708867,67.380258,118.61478)" /><path
         style="fill:#ffffff;stroke:#4b4b4b;stroke-width:0.793862"
         d="m 42.961125,40.814605 c -0.05776,-0.107928 -0.08784,-0.214262 -0.06684,-0.236298 0.021,-0.02203 0.09064,-1.552371 0.154754,-3.400747 0.06412,-1.848375 0.144739,-3.71513 0.179163,-4.148343 l 0.06259,-0.78766 1.223005,-1.208694 c 1.087863,-1.075133 4.691471,-4.150725 5.649014,-4.821297 0.332422,-0.232797 0.376369,-0.239884 0.530681,-0.08557 0.154312,0.154312 0.149013,0.444941 -0.06399,3.509478 -0.288599,4.152227 -0.344352,4.572044 -0.656424,4.942908 -0.484163,0.575375 -6.701449,6.427559 -6.831861,6.430669 -0.04129,9.46e-4 -0.122331,-0.08651 -0.180093,-0.194444 z"
         id="path12482"
         transform="matrix(0.18708867,-0.18708867,0.18708867,0.18708867,67.380258,118.61478)" /><path
         style="fill:#ffffff;stroke:#4b4b4b;stroke-width:0.396931"
         d="m 23.945925,48.408148 c 0.0032,-0.300317 0.113365,-0.788909 0.243344,-1.079504 0.08157,-0.182373 0.433602,-0.709664 0.782286,-1.171758 0.348683,-0.462093 0.711566,-0.954073 0.806407,-1.093286 0.254217,-0.37316 0.263099,-0.254756 0.01085,0.14465 -0.119086,0.188558 -0.313638,0.535439 -0.432339,0.770846 -0.176132,0.349306 -0.210811,0.46535 -0.188586,0.631049 0.02388,0.178061 -0.0077,0.258652 -0.256623,0.655166 -0.283146,0.450999 -0.733253,1.047668 -0.885878,1.174336 -0.06749,0.05602 -0.08035,0.05092 -0.07946,-0.0315 z"
         id="path12763"
         transform="matrix(0.18708867,-0.18708867,0.18708867,0.18708867,67.380258,118.61478)" /><path
         style="fill:#ffffff;stroke:#4b4b4b;stroke-width:0.198466"
         d="m 25.441424,46.331639 c 0,-0.02663 0.06342,-0.171362 0.140932,-0.321628 0.389173,-0.754448 1.082094,-1.813647 1.699381,-2.597672 0.231672,-0.29425 0.443901,-0.603613 0.443901,-0.647066 0,-0.08045 -0.09897,-0.02208 -0.286155,0.168771 -0.238624,0.2433 -0.560512,0.662717 -1.007914,1.313304 -0.254825,0.370552 -0.333506,0.468278 -0.345811,0.429511 -0.01131,-0.03563 0.06307,-0.170936 0.256488,-0.46657 0.297864,-0.455278 0.654818,-1.042176 0.907959,-1.492852 0.370737,-0.660033 1.204365,-1.696581 1.3113,-1.630491 0.03624,0.0224 -0.0022,0.151057 -0.145536,0.486672 -0.175449,0.410925 -0.452939,0.970177 -0.662014,1.334223 -0.392361,0.683188 -2.241029,3.472216 -2.30151,3.472216 -0.0061,0 -0.01102,-0.02179 -0.01102,-0.04842 z"
         id="path12765"
         transform="matrix(0.18708867,-0.18708867,0.18708867,0.18708867,67.380258,118.61478)" /></g></g></svg>
